<svg xmlns="http://www.w3.org/2000/svg" xmlns:xlink="http://www.w3.org/1999/xlink" width="500" zoomAndPan="magnify" viewBox="0 0 375 374.999991" height="500" preserveAspectRatio="xMidYMid meet" version="1.0"><defs><g/><clipPath id="53adf03d34"><path d="M 11.285156 163.550781 L 59.523438 163.550781 L 59.523438 211.792969 L 11.285156 211.792969 Z M 11.285156 163.550781 " clip-rule="nonzero"/></clipPath><clipPath id="88d6566009"><path d="M 16.621094 168.890625 L 53.511719 168.890625 L 53.511719 205.78125 L 16.621094 205.78125 Z M 16.621094 168.890625 " clip-rule="nonzero"/></clipPath><clipPath id="6267472188"><path d="M 20.15625 178.707031 L 50.660156 178.707031 L 50.660156 206.375 L 20.15625 206.375 Z M 20.15625 178.707031 " clip-rule="nonzero"/></clipPath></defs><rect x="-37.5" width="450" fill="#ffffff" y="-37.499999" height="449.999989" fill-opacity="1"/><rect x="-37.5" width="450" fill="#5b8e55" y="-37.499999" height="449.999989" fill-opacity="1"/><g clip-path="url(#53adf03d34)"><path fill="#ffffff" d="M 35.226562 163.550781 C 35.21875 163.550781 35.207031 163.550781 35.195312 163.550781 C 21.988281 163.550781 11.285156 174.257812 11.285156 187.464844 C 11.285156 192.023438 12.558594 196.285156 14.777344 199.914062 L 14.71875 199.808594 L 11.339844 209.9375 C 11.304688 210.046875 11.28125 210.167969 11.28125 210.296875 C 11.28125 210.929688 11.792969 211.4375 12.421875 211.4375 C 12.425781 211.4375 12.425781 211.4375 12.429688 211.4375 C 12.554688 211.4375 12.679688 211.417969 12.789062 211.378906 L 12.78125 211.378906 L 22.910156 208.003906 C 26.4375 210.160156 30.703125 211.4375 35.269531 211.4375 C 48.492188 211.4375 59.210938 200.71875 59.210938 187.496094 C 59.210938 174.273438 48.492188 163.550781 35.269531 163.550781 C 35.253906 163.550781 35.238281 163.550781 35.222656 163.550781 Z M 35.226562 209.160156 C 30.9375 209.15625 26.9375 207.898438 23.578125 205.738281 L 23.664062 205.789062 C 23.492188 205.679688 23.285156 205.613281 23.058594 205.613281 C 23.058594 205.613281 23.054688 205.613281 23.054688 205.613281 C 23.054688 205.613281 23.050781 205.613281 23.050781 205.613281 C 22.921875 205.613281 22.800781 205.636719 22.6875 205.675781 L 22.695312 205.675781 L 14.226562 208.496094 L 17.050781 200.035156 C 17.085938 199.929688 17.109375 199.804688 17.109375 199.671875 C 17.109375 199.449219 17.042969 199.238281 16.929688 199.0625 L 16.933594 199.066406 C 14.835938 195.792969 13.589844 191.796875 13.589844 187.511719 C 13.589844 175.554688 23.28125 165.863281 35.238281 165.863281 C 47.191406 165.863281 56.882812 175.554688 56.882812 187.511719 C 56.882812 199.46875 47.191406 209.160156 35.238281 209.160156 C 35.234375 209.160156 35.230469 209.160156 35.226562 209.160156 Z M 35.226562 209.160156 " fill-opacity="1" fill-rule="nonzero"/></g><g clip-path="url(#88d6566009)"><path fill="#ffffff" d="M 35.226562 206.101562 C 24.949219 206.101562 16.621094 197.71875 16.621094 187.496094 C 16.621094 177.273438 24.949219 168.890625 35.226562 168.890625 C 45.507812 168.890625 53.832031 177.214844 53.832031 187.496094 C 53.832031 197.773438 45.449219 206.101562 35.226562 206.101562 Z M 35.226562 170.039062 C 25.578125 170.039062 17.769531 177.847656 17.769531 187.496094 C 17.769531 197.144531 25.578125 204.953125 35.226562 204.953125 C 44.875 204.953125 52.683594 197.144531 52.683594 187.496094 C 52.683594 177.847656 44.816406 170.039062 35.226562 170.039062 Z M 35.226562 170.039062 " fill-opacity="1" fill-rule="nonzero"/></g><g clip-path="url(#6267472188)"><path fill="#ffffff" d="M 49.632812 181.417969 C 45.980469 181.417969 40.820312 181.722656 38.183594 184.359375 C 37.042969 185.5 36.472656 187.359375 36.621094 189.464844 C 36.640625 189.742188 36.828125 189.980469 37.09375 190.070312 C 37.355469 190.15625 37.648438 190.074219 37.828125 189.863281 C 39.292969 188.136719 41.117188 186.753906 43.246094 185.753906 C 43.429688 185.667969 43.640625 185.660156 43.835938 185.726562 C 44.007812 185.789062 44.140625 185.90625 44.210938 186.054688 C 44.359375 186.363281 44.3125 186.765625 43.828125 186.992188 C 43.800781 187.007812 43.777344 187.027344 43.75 187.039062 C 43.738281 187.042969 43.730469 187.039062 43.71875 187.042969 C 38.46875 189.511719 35.886719 193.820312 34.710938 198.25 C 33.855469 192.703125 32.050781 189.441406 30.34375 187.433594 C 29.109375 185.835938 27.898438 184.988281 27.195312 184.507812 C 27.066406 184.417969 26.671875 184.148438 26.507812 183.988281 C 26.242188 183.71875 26.242188 183.285156 26.507812 183.019531 C 26.777344 182.753906 27.210938 182.753906 27.507812 183.046875 C 27.582031 183.113281 27.699219 183.195312 27.847656 183.292969 L 27.96875 183.375 C 28.960938 184.054688 30.808594 185.316406 32.445312 188.035156 C 32.59375 188.277344 32.875 188.40625 33.152344 188.355469 C 33.429688 188.304688 33.648438 188.089844 33.707031 187.8125 C 34.0625 185.984375 33.902344 183.277344 32.273438 181.648438 C 29.636719 179.011719 24.480469 178.707031 20.828125 178.707031 C 20.449219 178.707031 20.144531 179.015625 20.144531 179.394531 C 20.144531 183.042969 20.449219 188.203125 23.085938 190.839844 C 24.183594 191.9375 25.878906 192.429688 27.5625 192.429688 C 28.9375 192.429688 30.28125 192.085938 31.3125 191.492188 C 32.722656 194.40625 33.84375 198.761719 33.84375 205.425781 C 33.84375 205.800781 34.152344 206.109375 34.53125 206.109375 C 34.90625 206.109375 35.214844 205.800781 35.214844 205.425781 C 35.214844 201.707031 35.851562 197.246094 38.222656 193.574219 C 39.171875 194.503906 40.804688 195.089844 42.617188 195.144531 C 42.707031 195.148438 42.796875 195.148438 42.882812 195.148438 C 44.726562 195.148438 46.351562 194.570312 47.375 193.546875 C 50.011719 190.910156 50.316406 185.753906 50.316406 182.101562 C 50.316406 181.722656 50.011719 181.417969 49.632812 181.417969 Z M 49.632812 181.417969 " fill-opacity="1" fill-rule="nonzero"/></g><g fill="#ffffff" fill-opacity="1"><g transform="translate(63.881395, 203.819932)"><g><path d="M 34.109375 -27.3125 C 32.503906 -29.582031 30.632812 -31.332031 28.5 -32.5625 C 26.375 -33.789062 23.929688 -34.40625 21.171875 -34.40625 C 18.441406 -34.40625 15.882812 -33.6875 13.5 -32.25 C 11.125 -30.820312 9.242188 -28.898438 7.859375 -26.484375 C 6.484375 -24.078125 5.796875 -21.472656 5.796875 -18.671875 C 5.796875 -15.878906 6.535156 -13.285156 8.015625 -10.890625 C 9.492188 -8.492188 11.398438 -6.617188 13.734375 -5.265625 C 16.066406 -3.921875 18.445312 -3.25 20.875 -3.25 C 23.132812 -3.25 25.296875 -3.765625 27.359375 -4.796875 C 29.429688 -5.828125 31.109375 -7.238281 32.390625 -9.03125 C 33.671875 -10.832031 34.3125 -12.832031 34.3125 -15.03125 L 23.125 -15.03125 L 23.125 -18.921875 L 38.796875 -18.921875 L 38.796875 -16.78125 C 38.796875 -14.3125 38.378906 -12.03125 37.546875 -9.9375 C 36.710938 -7.84375 35.429688 -5.992188 33.703125 -4.390625 C 31.972656 -2.796875 30.007812 -1.554688 27.8125 -0.671875 C 25.613281 0.210938 23.332031 0.65625 20.96875 0.65625 C 17.539062 0.65625 14.328125 -0.207031 11.328125 -1.9375 C 8.335938 -3.675781 5.96875 -6.050781 4.21875 -9.0625 C 2.46875 -12.070312 1.59375 -15.289062 1.59375 -18.71875 C 1.59375 -22.21875 2.484375 -25.484375 4.265625 -28.515625 C 6.046875 -31.546875 8.457031 -33.929688 11.5 -35.671875 C 14.550781 -37.421875 17.789062 -38.296875 21.21875 -38.296875 C 24.519531 -38.296875 27.492188 -37.597656 30.140625 -36.203125 C 32.785156 -34.804688 35.125 -32.789062 37.15625 -30.15625 Z M 34.109375 -27.3125 "/></g></g></g><g fill="#ffffff" fill-opacity="1"><g transform="translate(104.824094, 203.819932)"><g><path d="M 21.21875 -20.125 L 21.21875 -23.46875 L 25.21875 -23.46875 L 25.21875 0 L 21.21875 0 L 21.21875 -3.25 L 21.125 -3.25 C 19.0625 -0.644531 16.363281 0.65625 13.03125 0.65625 C 9.769531 0.65625 7.082031 -0.539062 4.96875 -2.9375 C 2.851562 -5.34375 1.796875 -8.257812 1.796875 -11.6875 C 1.796875 -15.28125 2.859375 -18.25 4.984375 -20.59375 C 7.117188 -22.945312 9.816406 -24.125 13.078125 -24.125 C 14.710938 -24.125 16.21875 -23.769531 17.59375 -23.0625 C 18.976562 -22.363281 20.15625 -21.382812 21.125 -20.125 Z M 13.53125 -20.421875 C 11.40625 -20.421875 9.597656 -19.601562 8.109375 -17.96875 C 6.628906 -16.34375 5.890625 -14.347656 5.890625 -11.984375 C 5.890625 -9.453125 6.613281 -7.328125 8.0625 -5.609375 C 9.507812 -3.898438 11.347656 -3.046875 13.578125 -3.046875 C 15.941406 -3.046875 17.835938 -3.859375 19.265625 -5.484375 C 20.703125 -7.117188 21.421875 -9.269531 21.421875 -11.9375 C 21.421875 -14.363281 20.6875 -16.382812 19.21875 -18 C 17.757812 -19.613281 15.863281 -20.421875 13.53125 -20.421875 Z M 13.53125 -20.421875 "/></g></g></g><g fill="#ffffff" fill-opacity="1"><g transform="translate(133.633768, 203.819932)"><g><path d="M 14.578125 -19.375 C 14.179688 -19.675781 13.804688 -19.925781 13.453125 -20.125 C 13.109375 -20.320312 12.6875 -20.421875 12.1875 -20.421875 C 10.6875 -20.421875 9.546875 -19.753906 8.765625 -18.421875 C 7.984375 -17.085938 7.59375 -14.941406 7.59375 -11.984375 L 7.59375 0 L 3.59375 0 L 3.59375 -23.46875 L 7.59375 -23.46875 L 7.59375 -20.921875 L 7.6875 -20.921875 C 8.65625 -22.222656 9.515625 -23.082031 10.265625 -23.5 C 11.015625 -23.914062 11.890625 -24.125 12.890625 -24.125 C 13.484375 -24.125 14.085938 -24.019531 14.703125 -23.8125 C 15.316406 -23.613281 15.910156 -23.347656 16.484375 -23.015625 Z M 14.578125 -19.375 "/></g></g></g><g fill="#ffffff" fill-opacity="1"><g transform="translate(150.360356, 203.819932)"><g><path d="M 25.21875 -41.203125 L 25.21875 0 L 21.21875 0 L 21.21875 -3.25 L 21.125 -3.25 C 20.125 -1.945312 18.929688 -0.96875 17.546875 -0.3125 C 16.171875 0.332031 14.664062 0.65625 13.03125 0.65625 C 10.90625 0.65625 8.972656 0.0976562 7.234375 -1.015625 C 5.503906 -2.140625 4.164062 -3.640625 3.21875 -5.515625 C 2.269531 -7.398438 1.796875 -9.457031 1.796875 -11.6875 C 1.796875 -13.976562 2.269531 -16.082031 3.21875 -18 C 4.164062 -19.914062 5.503906 -21.414062 7.234375 -22.5 C 8.972656 -23.582031 10.921875 -24.125 13.078125 -24.125 C 14.679688 -24.125 16.179688 -23.769531 17.578125 -23.0625 C 18.972656 -22.363281 20.15625 -21.382812 21.125 -20.125 L 21.21875 -20.125 L 21.21875 -41.203125 Z M 13.53125 -20.421875 C 11.363281 -20.421875 9.546875 -19.597656 8.078125 -17.953125 C 6.617188 -16.304688 5.890625 -14.316406 5.890625 -11.984375 C 5.890625 -9.421875 6.601562 -7.289062 8.03125 -5.59375 C 9.46875 -3.894531 11.316406 -3.046875 13.578125 -3.046875 C 15.910156 -3.046875 17.800781 -3.859375 19.25 -5.484375 C 20.695312 -7.117188 21.421875 -9.269531 21.421875 -11.9375 C 21.421875 -14.46875 20.679688 -16.515625 19.203125 -18.078125 C 17.722656 -19.640625 15.832031 -20.421875 13.53125 -20.421875 Z M 13.53125 -20.421875 "/></g></g></g><g fill="#ffffff" fill-opacity="1"><g transform="translate(179.17003, 203.819932)"><g><path d="M 24.21875 -10.890625 L 5.796875 -10.890625 C 5.859375 -8.554688 6.617188 -6.664062 8.078125 -5.21875 C 9.546875 -3.769531 11.347656 -3.046875 13.484375 -3.046875 C 14.984375 -3.046875 16.304688 -3.425781 17.453125 -4.1875 C 18.597656 -4.957031 19.65625 -6.191406 20.625 -7.890625 L 24.015625 -5.9375 C 22.890625 -3.84375 21.398438 -2.21875 19.546875 -1.0625 C 17.703125 0.0820312 15.582031 0.65625 13.1875 0.65625 C 10.882812 0.65625 8.847656 0.109375 7.078125 -0.984375 C 5.316406 -2.085938 3.976562 -3.5625 3.0625 -5.40625 C 2.15625 -7.257812 1.703125 -9.269531 1.703125 -11.4375 C 1.703125 -13.832031 2.15625 -15.992188 3.0625 -17.921875 C 3.976562 -19.859375 5.300781 -21.375 7.03125 -22.46875 C 8.769531 -23.570312 10.785156 -24.125 13.078125 -24.125 C 15.304688 -24.125 17.28125 -23.582031 19 -22.5 C 20.71875 -21.414062 22.023438 -19.925781 22.921875 -18.03125 C 23.816406 -16.132812 24.265625 -14.003906 24.265625 -11.640625 C 24.265625 -11.398438 24.25 -11.148438 24.21875 -10.890625 Z M 20.03125 -14.28125 C 19.695312 -16.113281 18.878906 -17.59375 17.578125 -18.71875 C 16.273438 -19.851562 14.796875 -20.421875 13.140625 -20.421875 C 11.503906 -20.421875 9.96875 -19.828125 8.53125 -18.640625 C 7.101562 -17.460938 6.257812 -16.007812 6 -14.28125 Z M 20.03125 -14.28125 "/></g></g></g><g fill="#ffffff" fill-opacity="1"><g transform="translate(205.083756, 203.819932)"><g><path d="M 22.578125 0 L 18.578125 0 L 18.578125 -13.6875 C 18.578125 -16.050781 18.21875 -17.765625 17.5 -18.828125 C 16.78125 -19.890625 15.492188 -20.421875 13.640625 -20.421875 C 11.503906 -20.421875 9.992188 -19.6875 9.109375 -18.21875 C 8.234375 -16.757812 7.796875 -14.53125 7.796875 -11.53125 L 7.796875 0 L 3.796875 0 L 3.796875 -23.46875 L 7.796875 -23.46875 L 7.796875 -20.625 L 7.890625 -20.625 C 8.722656 -21.757812 9.679688 -22.625 10.765625 -23.21875 C 11.847656 -23.820312 13.117188 -24.125 14.578125 -24.125 C 17.210938 -24.125 19.203125 -23.316406 20.546875 -21.703125 C 21.898438 -20.085938 22.578125 -17.582031 22.578125 -14.1875 Z M 22.578125 0 "/></g></g></g><g fill="#ffffff" fill-opacity="1"><g transform="translate(231.446865, 203.819932)"><g><path d="M 34.109375 -27.3125 C 32.503906 -29.582031 30.632812 -31.332031 28.5 -32.5625 C 26.375 -33.789062 23.929688 -34.40625 21.171875 -34.40625 C 18.441406 -34.40625 15.882812 -33.6875 13.5 -32.25 C 11.125 -30.820312 9.242188 -28.898438 7.859375 -26.484375 C 6.484375 -24.078125 5.796875 -21.472656 5.796875 -18.671875 C 5.796875 -15.878906 6.535156 -13.285156 8.015625 -10.890625 C 9.492188 -8.492188 11.398438 -6.617188 13.734375 -5.265625 C 16.066406 -3.921875 18.445312 -3.25 20.875 -3.25 C 23.132812 -3.25 25.296875 -3.765625 27.359375 -4.796875 C 29.429688 -5.828125 31.109375 -7.238281 32.390625 -9.03125 C 33.671875 -10.832031 34.3125 -12.832031 34.3125 -15.03125 L 23.125 -15.03125 L 23.125 -18.921875 L 38.796875 -18.921875 L 38.796875 -16.78125 C 38.796875 -14.3125 38.378906 -12.03125 37.546875 -9.9375 C 36.710938 -7.84375 35.429688 -5.992188 33.703125 -4.390625 C 31.972656 -2.796875 30.007812 -1.554688 27.8125 -0.671875 C 25.613281 0.210938 23.332031 0.65625 20.96875 0.65625 C 17.539062 0.65625 14.328125 -0.207031 11.328125 -1.9375 C 8.335938 -3.675781 5.96875 -6.050781 4.21875 -9.0625 C 2.46875 -12.070312 1.59375 -15.289062 1.59375 -18.71875 C 1.59375 -22.21875 2.484375 -25.484375 4.265625 -28.515625 C 6.046875 -31.546875 8.457031 -33.929688 11.5 -35.671875 C 14.550781 -37.421875 17.789062 -38.296875 21.21875 -38.296875 C 24.519531 -38.296875 27.492188 -37.597656 30.140625 -36.203125 C 32.785156 -34.804688 35.125 -32.789062 37.15625 -30.15625 Z M 34.109375 -27.3125 "/></g></g></g><g fill="#ffffff" fill-opacity="1"><g transform="translate(272.389575, 203.819932)"><g><path d="M 24.21875 -10.890625 L 5.796875 -10.890625 C 5.859375 -8.554688 6.617188 -6.664062 8.078125 -5.21875 C 9.546875 -3.769531 11.347656 -3.046875 13.484375 -3.046875 C 14.984375 -3.046875 16.304688 -3.425781 17.453125 -4.1875 C 18.597656 -4.957031 19.65625 -6.191406 20.625 -7.890625 L 24.015625 -5.9375 C 22.890625 -3.84375 21.398438 -2.21875 19.546875 -1.0625 C 17.703125 0.0820312 15.582031 0.65625 13.1875 0.65625 C 10.882812 0.65625 8.847656 0.109375 7.078125 -0.984375 C 5.316406 -2.085938 3.976562 -3.5625 3.0625 -5.40625 C 2.15625 -7.257812 1.703125 -9.269531 1.703125 -11.4375 C 1.703125 -13.832031 2.15625 -15.992188 3.0625 -17.921875 C 3.976562 -19.859375 5.300781 -21.375 7.03125 -22.46875 C 8.769531 -23.570312 10.785156 -24.125 13.078125 -24.125 C 15.304688 -24.125 17.28125 -23.582031 19 -22.5 C 20.71875 -21.414062 22.023438 -19.925781 22.921875 -18.03125 C 23.816406 -16.132812 24.265625 -14.003906 24.265625 -11.640625 C 24.265625 -11.398438 24.25 -11.148438 24.21875 -10.890625 Z M 20.03125 -14.28125 C 19.695312 -16.113281 18.878906 -17.59375 17.578125 -18.71875 C 16.273438 -19.851562 14.796875 -20.421875 13.140625 -20.421875 C 11.503906 -20.421875 9.96875 -19.828125 8.53125 -18.640625 C 7.101562 -17.460938 6.257812 -16.007812 6 -14.28125 Z M 20.03125 -14.28125 "/></g></g></g><g fill="#ffffff" fill-opacity="1"><g transform="translate(298.303302, 203.819932)"><g><path d="M 22.578125 0 L 18.578125 0 L 18.578125 -13.6875 C 18.578125 -16.050781 18.21875 -17.765625 17.5 -18.828125 C 16.78125 -19.890625 15.492188 -20.421875 13.640625 -20.421875 C 11.503906 -20.421875 9.992188 -19.6875 9.109375 -18.21875 C 8.234375 -16.757812 7.796875 -14.53125 7.796875 -11.53125 L 7.796875 0 L 3.796875 0 L 3.796875 -23.46875 L 7.796875 -23.46875 L 7.796875 -20.625 L 7.890625 -20.625 C 8.722656 -21.757812 9.679688 -22.625 10.765625 -23.21875 C 11.847656 -23.820312 13.117188 -24.125 14.578125 -24.125 C 17.210938 -24.125 19.203125 -23.316406 20.546875 -21.703125 C 21.898438 -20.085938 22.578125 -17.582031 22.578125 -14.1875 Z M 22.578125 0 "/></g></g></g><g fill="#ffffff" fill-opacity="1"><g transform="translate(324.66641, 203.819932)"><g><path d="M 8.546875 -23.46875 L 8.546875 0 L 4.546875 0 L 4.546875 -23.46875 Z M 3.703125 -32.40625 C 3.703125 -33.144531 3.988281 -33.785156 4.5625 -34.328125 C 5.144531 -34.878906 5.804688 -35.15625 6.546875 -35.15625 C 7.304688 -35.15625 7.96875 -34.878906 8.53125 -34.328125 C 9.101562 -33.785156 9.390625 -33.144531 9.390625 -32.40625 C 9.390625 -31.539062 9.101562 -30.832031 8.53125 -30.28125 C 7.96875 -29.738281 7.304688 -29.46875 6.546875 -29.46875 C 5.773438 -29.46875 5.109375 -29.734375 4.546875 -30.265625 C 3.984375 -30.796875 3.703125 -31.507812 3.703125 -32.40625 Z M 3.703125 -32.40625 "/></g></g></g><g fill="#ffffff" fill-opacity="1"><g transform="translate(337.7481, 203.819932)"><g><path d="M 24.21875 -10.890625 L 5.796875 -10.890625 C 5.859375 -8.554688 6.617188 -6.664062 8.078125 -5.21875 C 9.546875 -3.769531 11.347656 -3.046875 13.484375 -3.046875 C 14.984375 -3.046875 16.304688 -3.425781 17.453125 -4.1875 C 18.597656 -4.957031 19.65625 -6.191406 20.625 -7.890625 L 24.015625 -5.9375 C 22.890625 -3.84375 21.398438 -2.21875 19.546875 -1.0625 C 17.703125 0.0820312 15.582031 0.65625 13.1875 0.65625 C 10.882812 0.65625 8.847656 0.109375 7.078125 -0.984375 C 5.316406 -2.085938 3.976562 -3.5625 3.0625 -5.40625 C 2.15625 -7.257812 1.703125 -9.269531 1.703125 -11.4375 C 1.703125 -13.832031 2.15625 -15.992188 3.0625 -17.921875 C 3.976562 -19.859375 5.300781 -21.375 7.03125 -22.46875 C 8.769531 -23.570312 10.785156 -24.125 13.078125 -24.125 C 15.304688 -24.125 17.28125 -23.582031 19 -22.5 C 20.71875 -21.414062 22.023438 -19.925781 22.921875 -18.03125 C 23.816406 -16.132812 24.265625 -14.003906 24.265625 -11.640625 C 24.265625 -11.398438 24.25 -11.148438 24.21875 -10.890625 Z M 20.03125 -14.28125 C 19.695312 -16.113281 18.878906 -17.59375 17.578125 -18.71875 C 16.273438 -19.851562 14.796875 -20.421875 13.140625 -20.421875 C 11.503906 -20.421875 9.96875 -19.828125 8.53125 -18.640625 C 7.101562 -17.460938 6.257812 -16.007812 6 -14.28125 Z M 20.03125 -14.28125 "/></g></g></g></svg>