<svg xmlns="http://www.w3.org/2000/svg" xmlns:xlink="http://www.w3.org/1999/xlink" width="500" zoomAndPan="magnify" viewBox="0 0 375 374.999991" height="500" preserveAspectRatio="xMidYMid meet" version="1.0"><defs><clipPath id="32beafc55d"><path d="M 15.628906 15.628906 L 360 15.628906 L 360 360 L 15.628906 360 Z M 15.628906 15.628906 " clip-rule="nonzero"/></clipPath><clipPath id="fe20556fc6"><path d="M 53.9375 53.9375 L 318.695312 53.9375 L 318.695312 318.695312 L 53.9375 318.695312 Z M 53.9375 53.9375 " clip-rule="nonzero"/></clipPath><clipPath id="45aa21d754"><path d="M 79.296875 124.398438 L 296 124.398438 L 296 322 L 79.296875 322 Z M 79.296875 124.398438 " clip-rule="nonzero"/></clipPath></defs><rect x="-37.5" width="450" fill="#ffffff" y="-37.499999" height="449.999989" fill-opacity="1"/><rect x="-37.5" width="450" fill="#ffffff" y="-37.499999" height="449.999989" fill-opacity="1"/><g clip-path="url(#32beafc55d)"><path fill="#25570b" d="M 187.464844 15.628906 C 187.398438 15.628906 187.320312 15.628906 187.238281 15.628906 C 92.457031 15.628906 15.628906 92.457031 15.628906 187.238281 C 15.628906 219.96875 24.792969 250.5625 40.699219 276.59375 L 40.273438 275.839844 L 16.039062 348.535156 C 15.777344 349.304688 15.621094 350.195312 15.621094 351.121094 C 15.621094 355.636719 19.285156 359.304688 23.800781 359.304688 C 23.800781 359.304688 23.8125 359.304688 23.8125 359.304688 C 23.820312 359.304688 23.835938 359.304688 23.84375 359.304688 C 24.761719 359.304688 25.636719 359.148438 26.445312 358.863281 L 26.386719 358.878906 L 99.082031 334.65625 C 124.375 350.136719 154.996094 359.304688 187.761719 359.304688 C 282.664062 359.304688 359.597656 282.367188 359.597656 187.464844 C 359.597656 92.5625 282.664062 15.628906 187.761719 15.628906 C 187.652344 15.628906 187.546875 15.628906 187.441406 15.628906 Z M 187.464844 342.9375 C 156.675781 342.914062 127.984375 333.902344 103.878906 318.398438 L 104.492188 318.765625 C 103.257812 317.972656 101.75 317.503906 100.132812 317.503906 C 100.125 317.503906 100.113281 317.503906 100.105469 317.503906 C 100.097656 317.503906 100.082031 317.503906 100.074219 317.503906 C 99.15625 317.503906 98.28125 317.660156 97.472656 317.949219 L 97.527344 317.929688 L 36.746094 338.175781 L 57.007812 277.476562 C 57.277344 276.699219 57.433594 275.796875 57.433594 274.867188 C 57.433594 273.246094 56.96875 271.738281 56.148438 270.472656 L 56.164062 270.503906 C 41.117188 247.003906 32.183594 218.339844 32.183594 187.582031 C 32.183594 101.777344 101.734375 32.222656 187.539062 32.222656 C 273.34375 32.222656 342.898438 101.777344 342.898438 187.582031 C 342.898438 273.382812 273.34375 342.9375 187.539062 342.9375 C 187.515625 342.9375 187.492188 342.9375 187.457031 342.9375 Z M 187.464844 342.9375 " fill-opacity="1" fill-rule="nonzero"/></g><g clip-path="url(#fe20556fc6)"><path fill="#25570b" d="M 187.472656 321.003906 C 113.699219 321.003906 53.9375 260.832031 53.9375 187.472656 C 53.9375 114.109375 113.699219 53.9375 187.472656 53.9375 C 261.242188 53.9375 321.003906 113.699219 321.003906 187.472656 C 321.003906 261.242188 260.832031 321.003906 187.472656 321.003906 Z M 187.472656 62.179688 C 118.230469 62.179688 62.179688 118.230469 62.179688 187.472656 C 62.179688 256.710938 118.230469 312.761719 187.472656 312.761719 C 256.710938 312.761719 312.761719 256.710938 312.761719 187.472656 C 312.761719 118.230469 256.296875 62.179688 187.472656 62.179688 Z M 187.472656 62.179688 " fill-opacity="1" fill-rule="nonzero"/></g><g clip-path="url(#45aa21d754)"><path fill="#25570b" d="M 290.84375 143.847656 C 264.636719 143.847656 227.617188 146.042969 208.699219 164.949219 C 200.507812 173.140625 196.417969 186.492188 197.480469 201.605469 C 197.617188 203.601562 198.945312 205.304688 200.851562 205.933594 C 202.75 206.554688 204.835938 205.972656 206.132812 204.449219 C 216.652344 192.070312 229.730469 182.148438 245.03125 174.960938 C 246.328125 174.339844 247.863281 174.292969 249.261719 174.78125 C 250.488281 175.226562 251.453125 176.0625 251.953125 177.132812 C 252.996094 179.335938 252.660156 182.238281 249.199219 183.867188 C 249.003906 183.96875 248.828125 184.09375 248.628906 184.183594 C 248.5625 184.210938 248.484375 184.203125 248.425781 184.234375 C 210.722656 201.953125 192.191406 232.867188 183.773438 264.65625 C 177.636719 224.851562 164.675781 201.421875 152.433594 187.035156 C 143.574219 175.550781 134.863281 169.464844 129.828125 166.023438 C 128.894531 165.382812 126.074219 163.457031 124.902344 162.285156 C 122.984375 160.367188 122.984375 157.25 124.902344 155.332031 C 126.820312 153.425781 129.945312 153.425781 132.082031 155.550781 C 132.601562 156.011719 133.4375 156.601562 134.5 157.308594 L 135.375 157.898438 C 142.492188 162.777344 155.75 171.832031 167.507812 191.332031 C 168.5625 193.074219 170.597656 194.007812 172.574219 193.632812 C 174.578125 193.277344 176.152344 191.734375 176.546875 189.738281 C 179.113281 176.632812 177.960938 157.183594 166.269531 145.492188 C 147.351562 126.59375 110.332031 124.398438 84.136719 124.398438 C 81.421875 124.398438 79.21875 126.601562 79.21875 129.316406 C 79.21875 155.519531 81.410156 192.542969 100.320312 211.460938 C 108.207031 219.347656 120.371094 222.886719 132.453125 222.886719 C 142.316406 222.886719 151.984375 220.417969 159.386719 216.140625 C 169.484375 237.066406 177.546875 268.324219 177.546875 316.140625 C 177.546875 318.855469 179.75 321.058594 182.464844 321.058594 C 185.179688 321.058594 187.382812 318.855469 187.382812 316.140625 C 187.382812 289.464844 191.953125 257.449219 208.953125 231.097656 C 215.769531 237.753906 227.5 241.972656 240.5 242.363281 C 241.148438 242.382812 241.785156 242.394531 242.425781 242.394531 C 255.632812 242.394531 267.304688 238.253906 274.648438 230.898438 C 293.566406 211.980469 295.75 174.960938 295.75 148.753906 C 295.761719 146.042969 293.566406 143.847656 290.84375 143.847656 Z M 290.84375 143.847656 " fill-opacity="1" fill-rule="nonzero"/></g></svg>