<svg xmlns="http://www.w3.org/2000/svg" xmlns:xlink="http://www.w3.org/1999/xlink" width="500" zoomAndPan="magnify" viewBox="0 0 375 374.999991" height="500" preserveAspectRatio="xMidYMid meet" version="1.0"><defs><g/><clipPath id="604f095c4e"><path d="M 12.492188 163.714844 L 60.402344 163.714844 L 60.402344 211.625 L 12.492188 211.625 Z M 12.492188 163.714844 " clip-rule="nonzero"/></clipPath><clipPath id="16e8dd34b0"><path d="M 17.792969 169.019531 L 54.429688 169.019531 L 54.429688 205.65625 L 17.792969 205.65625 Z M 17.792969 169.019531 " clip-rule="nonzero"/></clipPath><clipPath id="27d05fd543"><path d="M 21.300781 178.769531 L 51.597656 178.769531 L 51.597656 206 L 21.300781 206 Z M 21.300781 178.769531 " clip-rule="nonzero"/></clipPath></defs><rect x="-37.5" width="450" fill="#ffffff" y="-37.499999" height="449.999989" fill-opacity="1"/><rect x="-37.5" width="450" fill="#ffffff" y="-37.499999" height="449.999989" fill-opacity="1"/><g clip-path="url(#604f095c4e)"><path fill="#25570b" d="M 36.269531 163.714844 C 36.261719 163.714844 36.25 163.714844 36.238281 163.714844 C 23.125 163.714844 12.492188 174.347656 12.492188 187.464844 C 12.492188 191.992188 13.761719 196.226562 15.960938 199.828125 L 15.902344 199.722656 L 12.546875 209.785156 C 12.511719 209.890625 12.492188 210.015625 12.492188 210.140625 C 12.492188 210.765625 12.996094 211.273438 13.621094 211.273438 C 13.621094 211.273438 13.625 211.273438 13.625 211.273438 C 13.625 211.273438 13.628906 211.273438 13.628906 211.273438 C 13.753906 211.273438 13.875 211.253906 13.988281 211.214844 L 13.980469 211.214844 L 24.039062 207.863281 C 27.539062 210.007812 31.777344 211.273438 36.3125 211.273438 C 49.445312 211.273438 60.089844 200.628906 60.089844 187.496094 C 60.089844 174.363281 49.445312 163.714844 36.3125 163.714844 C 36.296875 163.714844 36.28125 163.714844 36.265625 163.714844 Z M 36.269531 209.007812 C 32.011719 209.007812 28.039062 207.757812 24.703125 205.613281 L 24.789062 205.664062 C 24.617188 205.554688 24.410156 205.492188 24.183594 205.492188 C 24.179688 205.492188 24.179688 205.492188 24.175781 205.492188 C 24.050781 205.492188 23.929688 205.511719 23.816406 205.550781 L 23.824219 205.550781 L 15.414062 208.351562 L 18.21875 199.949219 C 18.253906 199.84375 18.277344 199.71875 18.277344 199.589844 C 18.277344 199.367188 18.210938 199.15625 18.097656 198.980469 L 18.101562 198.984375 C 16.019531 195.734375 14.78125 191.765625 14.78125 187.511719 C 14.78125 175.636719 24.40625 166.011719 36.28125 166.011719 C 48.15625 166.011719 57.78125 175.636719 57.78125 187.511719 C 57.78125 199.386719 48.15625 209.007812 36.28125 209.007812 C 36.277344 209.007812 36.273438 209.007812 36.269531 209.007812 Z M 36.269531 209.007812 " fill-opacity="1" fill-rule="nonzero"/></g><g clip-path="url(#16e8dd34b0)"><path fill="#25570b" d="M 36.273438 205.972656 C 26.0625 205.972656 17.792969 197.648438 17.792969 187.496094 C 17.792969 177.34375 26.0625 169.019531 36.273438 169.019531 C 46.480469 169.019531 54.75 177.289062 54.75 187.496094 C 54.75 197.703125 46.421875 205.972656 36.273438 205.972656 Z M 36.273438 170.160156 C 26.691406 170.160156 18.933594 177.914062 18.933594 187.496094 C 18.933594 197.078125 26.691406 204.832031 36.273438 204.832031 C 45.851562 204.832031 53.609375 197.078125 53.609375 187.496094 C 53.609375 177.914062 45.796875 170.160156 36.273438 170.160156 Z M 36.273438 170.160156 " fill-opacity="1" fill-rule="nonzero"/></g><g clip-path="url(#27d05fd543)"><path fill="#25570b" d="M 50.578125 181.460938 C 46.949219 181.460938 41.828125 181.761719 39.210938 184.378906 C 38.074219 185.511719 37.507812 187.359375 37.65625 189.453125 C 37.675781 189.726562 37.859375 189.964844 38.125 190.050781 C 38.386719 190.136719 38.675781 190.054688 38.855469 189.84375 C 40.308594 188.132812 42.121094 186.757812 44.238281 185.765625 C 44.417969 185.679688 44.628906 185.671875 44.820312 185.738281 C 44.992188 185.800781 45.125 185.917969 45.195312 186.066406 C 45.339844 186.371094 45.292969 186.773438 44.8125 186.996094 C 44.785156 187.011719 44.761719 187.027344 44.734375 187.039062 C 44.726562 187.046875 44.714844 187.042969 44.707031 187.046875 C 39.488281 189.5 36.925781 193.777344 35.757812 198.175781 C 34.910156 192.667969 33.117188 189.425781 31.421875 187.4375 C 30.195312 185.847656 28.992188 185.003906 28.296875 184.527344 C 28.164062 184.4375 27.773438 184.171875 27.613281 184.011719 C 27.347656 183.746094 27.347656 183.3125 27.613281 183.046875 C 27.878906 182.785156 28.3125 182.785156 28.605469 183.078125 C 28.679688 183.144531 28.792969 183.222656 28.941406 183.320312 L 29.0625 183.402344 C 30.046875 184.078125 31.882812 185.332031 33.507812 188.03125 C 33.65625 188.269531 33.9375 188.398438 34.210938 188.347656 C 34.488281 188.300781 34.707031 188.085938 34.757812 187.808594 C 35.113281 185.996094 34.957031 183.304688 33.335938 181.6875 C 30.71875 179.070312 25.597656 178.769531 21.972656 178.769531 C 21.597656 178.769531 21.292969 179.074219 21.292969 179.449219 C 21.292969 183.074219 21.59375 188.199219 24.210938 190.816406 C 25.304688 191.90625 26.984375 192.398438 28.660156 192.398438 C 30.023438 192.398438 31.359375 192.054688 32.386719 191.464844 C 33.78125 194.359375 34.898438 198.683594 34.898438 205.300781 C 34.898438 205.675781 35.203125 205.980469 35.578125 205.980469 C 35.953125 205.980469 36.257812 205.675781 36.257812 205.300781 C 36.257812 201.609375 36.890625 197.179688 39.246094 193.53125 C 40.1875 194.453125 41.8125 195.039062 43.609375 195.09375 C 43.699219 195.09375 43.789062 195.097656 43.875 195.097656 C 45.703125 195.097656 47.320312 194.523438 48.335938 193.503906 C 50.953125 190.886719 51.253906 185.765625 51.253906 182.136719 C 51.257812 181.761719 50.953125 181.460938 50.578125 181.460938 Z M 50.578125 181.460938 " fill-opacity="1" fill-rule="nonzero"/></g><g fill="#25570b" fill-opacity="1"><g transform="translate(64.728964, 203.708005)"><g><path d="M 33.875 -27.125 C 32.28125 -29.375 30.425781 -31.109375 28.3125 -32.328125 C 26.195312 -33.554688 23.769531 -34.171875 21.03125 -34.171875 C 18.320312 -34.171875 15.785156 -33.457031 13.421875 -32.03125 C 11.054688 -30.613281 9.1875 -28.707031 7.8125 -26.3125 C 6.4375 -23.914062 5.75 -21.328125 5.75 -18.546875 C 5.75 -15.765625 6.484375 -13.179688 7.953125 -10.796875 C 9.429688 -8.421875 11.328125 -6.5625 13.640625 -5.21875 C 15.953125 -3.882812 18.316406 -3.21875 20.734375 -3.21875 C 22.984375 -3.21875 25.128906 -3.726562 27.171875 -4.75 C 29.222656 -5.78125 30.882812 -7.1875 32.15625 -8.96875 C 33.4375 -10.757812 34.078125 -12.742188 34.078125 -14.921875 L 22.96875 -14.921875 L 22.96875 -18.796875 L 38.53125 -18.796875 L 38.53125 -16.65625 C 38.53125 -14.21875 38.113281 -11.957031 37.28125 -9.875 C 36.457031 -7.789062 35.1875 -5.953125 33.46875 -4.359375 C 31.75 -2.773438 29.796875 -1.546875 27.609375 -0.671875 C 25.429688 0.203125 23.171875 0.640625 20.828125 0.640625 C 17.421875 0.640625 14.226562 -0.21875 11.25 -1.9375 C 8.28125 -3.65625 5.925781 -6.007812 4.1875 -9 C 2.457031 -11.988281 1.59375 -15.1875 1.59375 -18.59375 C 1.59375 -22.070312 2.472656 -25.3125 4.234375 -28.3125 C 6.003906 -31.320312 8.398438 -33.691406 11.421875 -35.421875 C 14.453125 -37.160156 17.671875 -38.03125 21.078125 -38.03125 C 24.347656 -38.03125 27.296875 -37.335938 29.921875 -35.953125 C 32.554688 -34.566406 34.878906 -32.566406 36.890625 -29.953125 Z M 33.875 -27.125 "/></g></g></g><g fill="#25570b" fill-opacity="1"><g transform="translate(105.390945, 203.708005)"><g><path d="M 21.078125 -19.984375 L 21.078125 -23.3125 L 25.046875 -23.3125 L 25.046875 0 L 21.078125 0 L 21.078125 -3.21875 L 20.984375 -3.21875 C 18.929688 -0.644531 16.25 0.640625 12.9375 0.640625 C 9.695312 0.640625 7.023438 -0.546875 4.921875 -2.921875 C 2.828125 -5.304688 1.78125 -8.203125 1.78125 -11.609375 C 1.78125 -15.179688 2.835938 -18.128906 4.953125 -20.453125 C 7.078125 -22.785156 9.757812 -23.953125 13 -23.953125 C 14.613281 -23.953125 16.109375 -23.601562 17.484375 -22.90625 C 18.859375 -22.21875 20.023438 -21.242188 20.984375 -19.984375 Z M 13.4375 -20.28125 C 11.320312 -20.28125 9.53125 -19.46875 8.0625 -17.84375 C 6.59375 -16.226562 5.859375 -14.25 5.859375 -11.90625 C 5.859375 -9.394531 6.578125 -7.285156 8.015625 -5.578125 C 9.453125 -3.878906 11.273438 -3.03125 13.484375 -3.03125 C 15.835938 -3.03125 17.722656 -3.835938 19.140625 -5.453125 C 20.566406 -7.078125 21.28125 -9.210938 21.28125 -11.859375 C 21.28125 -14.265625 20.550781 -16.269531 19.09375 -17.875 C 17.632812 -19.476562 15.75 -20.28125 13.4375 -20.28125 Z M 13.4375 -20.28125 "/></g></g></g><g fill="#25570b" fill-opacity="1"><g transform="translate(134.003089, 203.708005)"><g><path d="M 14.484375 -19.25 C 14.085938 -19.539062 13.710938 -19.785156 13.359375 -19.984375 C 13.015625 -20.179688 12.59375 -20.28125 12.09375 -20.28125 C 10.613281 -20.28125 9.484375 -19.617188 8.703125 -18.296875 C 7.921875 -16.972656 7.53125 -14.84375 7.53125 -11.90625 L 7.53125 0 L 3.578125 0 L 3.578125 -23.3125 L 7.53125 -23.3125 L 7.53125 -20.78125 L 7.640625 -20.78125 C 8.597656 -22.070312 9.445312 -22.921875 10.1875 -23.328125 C 10.9375 -23.742188 11.804688 -23.953125 12.796875 -23.953125 C 13.390625 -23.953125 13.988281 -23.851562 14.59375 -23.65625 C 15.207031 -23.457031 15.796875 -23.191406 16.359375 -22.859375 Z M 14.484375 -19.25 "/></g></g></g><g fill="#25570b" fill-opacity="1"><g transform="translate(150.614993, 203.708005)"><g><path d="M 25.046875 -40.921875 L 25.046875 0 L 21.078125 0 L 21.078125 -3.21875 L 20.984375 -3.21875 C 19.984375 -1.9375 18.796875 -0.972656 17.421875 -0.328125 C 16.054688 0.316406 14.5625 0.640625 12.9375 0.640625 C 10.820312 0.640625 8.90625 0.0859375 7.1875 -1.015625 C 5.46875 -2.117188 4.132812 -3.601562 3.1875 -5.46875 C 2.25 -7.34375 1.78125 -9.390625 1.78125 -11.609375 C 1.78125 -13.890625 2.25 -15.976562 3.1875 -17.875 C 4.132812 -19.78125 5.46875 -21.269531 7.1875 -22.34375 C 8.90625 -23.414062 10.84375 -23.953125 13 -23.953125 C 14.582031 -23.953125 16.066406 -23.601562 17.453125 -22.90625 C 18.847656 -22.21875 20.023438 -21.242188 20.984375 -19.984375 L 21.078125 -19.984375 L 21.078125 -40.921875 Z M 13.4375 -20.28125 C 11.289062 -20.28125 9.488281 -19.460938 8.03125 -17.828125 C 6.582031 -16.191406 5.859375 -14.21875 5.859375 -11.90625 C 5.859375 -9.351562 6.566406 -7.234375 7.984375 -5.546875 C 9.398438 -3.867188 11.234375 -3.03125 13.484375 -3.03125 C 15.804688 -3.03125 17.6875 -3.835938 19.125 -5.453125 C 20.5625 -7.078125 21.28125 -9.210938 21.28125 -11.859375 C 21.28125 -14.367188 20.539062 -16.398438 19.0625 -17.953125 C 17.59375 -19.503906 15.71875 -20.28125 13.4375 -20.28125 Z M 13.4375 -20.28125 "/></g></g></g><g fill="#25570b" fill-opacity="1"><g transform="translate(179.227137, 203.708005)"><g><path d="M 24.046875 -10.8125 L 5.75 -10.8125 C 5.820312 -8.5 6.582031 -6.625 8.03125 -5.1875 C 9.488281 -3.75 11.273438 -3.03125 13.390625 -3.03125 C 14.878906 -3.03125 16.191406 -3.410156 17.328125 -4.171875 C 18.472656 -4.929688 19.523438 -6.148438 20.484375 -7.828125 L 23.859375 -5.90625 C 22.734375 -3.820312 21.25 -2.207031 19.40625 -1.0625 C 17.570312 0.0703125 15.46875 0.640625 13.09375 0.640625 C 10.8125 0.640625 8.789062 0.0976562 7.03125 -0.984375 C 5.28125 -2.078125 3.953125 -3.539062 3.046875 -5.375 C 2.140625 -7.21875 1.6875 -9.210938 1.6875 -11.359375 C 1.6875 -13.734375 2.140625 -15.878906 3.046875 -17.796875 C 3.953125 -19.722656 5.265625 -21.226562 6.984375 -22.3125 C 8.710938 -23.40625 10.71875 -23.953125 13 -23.953125 C 15.207031 -23.953125 17.160156 -23.414062 18.859375 -22.34375 C 20.566406 -21.269531 21.867188 -19.789062 22.765625 -17.90625 C 23.660156 -16.019531 24.109375 -13.90625 24.109375 -11.5625 C 24.109375 -11.320312 24.085938 -11.070312 24.046875 -10.8125 Z M 19.890625 -14.1875 C 19.554688 -16 18.742188 -17.46875 17.453125 -18.59375 C 16.160156 -19.71875 14.691406 -20.28125 13.046875 -20.28125 C 11.421875 -20.28125 9.894531 -19.691406 8.46875 -18.515625 C 7.050781 -17.347656 6.210938 -15.90625 5.953125 -14.1875 Z M 19.890625 -14.1875 "/></g></g></g><g fill="#25570b" fill-opacity="1"><g transform="translate(204.963189, 203.708005)"><g><path d="M 22.421875 0 L 18.453125 0 L 18.453125 -13.59375 C 18.453125 -15.9375 18.09375 -17.632812 17.375 -18.6875 C 16.664062 -19.75 15.390625 -20.28125 13.546875 -20.28125 C 11.421875 -20.28125 9.921875 -19.550781 9.046875 -18.09375 C 8.171875 -16.644531 7.734375 -14.429688 7.734375 -11.453125 L 7.734375 0 L 3.765625 0 L 3.765625 -23.3125 L 7.734375 -23.3125 L 7.734375 -20.484375 L 7.828125 -20.484375 C 8.660156 -21.609375 9.613281 -22.46875 10.6875 -23.0625 C 11.757812 -23.65625 13.023438 -23.953125 14.484375 -23.953125 C 17.097656 -23.953125 19.070312 -23.148438 20.40625 -21.546875 C 21.75 -19.941406 22.421875 -17.453125 22.421875 -14.078125 Z M 22.421875 0 "/></g></g></g><g fill="#25570b" fill-opacity="1"><g transform="translate(231.145542, 203.708005)"><g><path d="M 33.875 -27.125 C 32.28125 -29.375 30.425781 -31.109375 28.3125 -32.328125 C 26.195312 -33.554688 23.769531 -34.171875 21.03125 -34.171875 C 18.320312 -34.171875 15.785156 -33.457031 13.421875 -32.03125 C 11.054688 -30.613281 9.1875 -28.707031 7.8125 -26.3125 C 6.4375 -23.914062 5.75 -21.328125 5.75 -18.546875 C 5.75 -15.765625 6.484375 -13.179688 7.953125 -10.796875 C 9.429688 -8.421875 11.328125 -6.5625 13.640625 -5.21875 C 15.953125 -3.882812 18.316406 -3.21875 20.734375 -3.21875 C 22.984375 -3.21875 25.128906 -3.726562 27.171875 -4.75 C 29.222656 -5.78125 30.882812 -7.1875 32.15625 -8.96875 C 33.4375 -10.757812 34.078125 -12.742188 34.078125 -14.921875 L 22.96875 -14.921875 L 22.96875 -18.796875 L 38.53125 -18.796875 L 38.53125 -16.65625 C 38.53125 -14.21875 38.113281 -11.957031 37.28125 -9.875 C 36.457031 -7.789062 35.1875 -5.953125 33.46875 -4.359375 C 31.75 -2.773438 29.796875 -1.546875 27.609375 -0.671875 C 25.429688 0.203125 23.171875 0.640625 20.828125 0.640625 C 17.421875 0.640625 14.226562 -0.21875 11.25 -1.9375 C 8.28125 -3.65625 5.925781 -6.007812 4.1875 -9 C 2.457031 -11.988281 1.59375 -15.1875 1.59375 -18.59375 C 1.59375 -22.070312 2.472656 -25.3125 4.234375 -28.3125 C 6.003906 -31.320312 8.398438 -33.691406 11.421875 -35.421875 C 14.453125 -37.160156 17.671875 -38.03125 21.078125 -38.03125 C 24.347656 -38.03125 27.296875 -37.335938 29.921875 -35.953125 C 32.554688 -34.566406 34.878906 -32.566406 36.890625 -29.953125 Z M 33.875 -27.125 "/></g></g></g><g fill="#25570b" fill-opacity="1"><g transform="translate(271.807534, 203.708005)"><g><path d="M 24.046875 -10.8125 L 5.75 -10.8125 C 5.820312 -8.5 6.582031 -6.625 8.03125 -5.1875 C 9.488281 -3.75 11.273438 -3.03125 13.390625 -3.03125 C 14.878906 -3.03125 16.191406 -3.410156 17.328125 -4.171875 C 18.472656 -4.929688 19.523438 -6.148438 20.484375 -7.828125 L 23.859375 -5.90625 C 22.734375 -3.820312 21.25 -2.207031 19.40625 -1.0625 C 17.570312 0.0703125 15.46875 0.640625 13.09375 0.640625 C 10.8125 0.640625 8.789062 0.0976562 7.03125 -0.984375 C 5.28125 -2.078125 3.953125 -3.539062 3.046875 -5.375 C 2.140625 -7.21875 1.6875 -9.210938 1.6875 -11.359375 C 1.6875 -13.734375 2.140625 -15.878906 3.046875 -17.796875 C 3.953125 -19.722656 5.265625 -21.226562 6.984375 -22.3125 C 8.710938 -23.40625 10.71875 -23.953125 13 -23.953125 C 15.207031 -23.953125 17.160156 -23.414062 18.859375 -22.34375 C 20.566406 -21.269531 21.867188 -19.789062 22.765625 -17.90625 C 23.660156 -16.019531 24.109375 -13.90625 24.109375 -11.5625 C 24.109375 -11.320312 24.085938 -11.070312 24.046875 -10.8125 Z M 19.890625 -14.1875 C 19.554688 -16 18.742188 -17.46875 17.453125 -18.59375 C 16.160156 -19.71875 14.691406 -20.28125 13.046875 -20.28125 C 11.421875 -20.28125 9.894531 -19.691406 8.46875 -18.515625 C 7.050781 -17.347656 6.210938 -15.90625 5.953125 -14.1875 Z M 19.890625 -14.1875 "/></g></g></g><g fill="#25570b" fill-opacity="1"><g transform="translate(297.543586, 203.708005)"><g><path d="M 22.421875 0 L 18.453125 0 L 18.453125 -13.59375 C 18.453125 -15.9375 18.09375 -17.632812 17.375 -18.6875 C 16.664062 -19.75 15.390625 -20.28125 13.546875 -20.28125 C 11.421875 -20.28125 9.921875 -19.550781 9.046875 -18.09375 C 8.171875 -16.644531 7.734375 -14.429688 7.734375 -11.453125 L 7.734375 0 L 3.765625 0 L 3.765625 -23.3125 L 7.734375 -23.3125 L 7.734375 -20.484375 L 7.828125 -20.484375 C 8.660156 -21.609375 9.613281 -22.46875 10.6875 -23.0625 C 11.757812 -23.65625 13.023438 -23.953125 14.484375 -23.953125 C 17.097656 -23.953125 19.070312 -23.148438 20.40625 -21.546875 C 21.75 -19.941406 22.421875 -17.453125 22.421875 -14.078125 Z M 22.421875 0 "/></g></g></g><g fill="#25570b" fill-opacity="1"><g transform="translate(323.72594, 203.708005)"><g><path d="M 8.484375 -23.3125 L 8.484375 0 L 4.515625 0 L 4.515625 -23.3125 Z M 3.671875 -32.1875 C 3.671875 -32.914062 3.957031 -33.550781 4.53125 -34.09375 C 5.113281 -34.632812 5.769531 -34.90625 6.5 -34.90625 C 7.257812 -34.90625 7.921875 -34.632812 8.484375 -34.09375 C 9.046875 -33.550781 9.328125 -32.914062 9.328125 -32.1875 C 9.328125 -31.320312 9.046875 -30.617188 8.484375 -30.078125 C 7.921875 -29.535156 7.257812 -29.265625 6.5 -29.265625 C 5.738281 -29.265625 5.078125 -29.523438 4.515625 -30.046875 C 3.953125 -30.578125 3.671875 -31.289062 3.671875 -32.1875 Z M 3.671875 -32.1875 "/></g></g></g><g fill="#25570b" fill-opacity="1"><g transform="translate(336.717937, 203.708005)"><g><path d="M 24.046875 -10.8125 L 5.75 -10.8125 C 5.820312 -8.5 6.582031 -6.625 8.03125 -5.1875 C 9.488281 -3.75 11.273438 -3.03125 13.390625 -3.03125 C 14.878906 -3.03125 16.191406 -3.410156 17.328125 -4.171875 C 18.472656 -4.929688 19.523438 -6.148438 20.484375 -7.828125 L 23.859375 -5.90625 C 22.734375 -3.820312 21.25 -2.207031 19.40625 -1.0625 C 17.570312 0.0703125 15.46875 0.640625 13.09375 0.640625 C 10.8125 0.640625 8.789062 0.0976562 7.03125 -0.984375 C 5.28125 -2.078125 3.953125 -3.539062 3.046875 -5.375 C 2.140625 -7.21875 1.6875 -9.210938 1.6875 -11.359375 C 1.6875 -13.734375 2.140625 -15.878906 3.046875 -17.796875 C 3.953125 -19.722656 5.265625 -21.226562 6.984375 -22.3125 C 8.710938 -23.40625 10.71875 -23.953125 13 -23.953125 C 15.207031 -23.953125 17.160156 -23.414062 18.859375 -22.34375 C 20.566406 -21.269531 21.867188 -19.789062 22.765625 -17.90625 C 23.660156 -16.019531 24.109375 -13.90625 24.109375 -11.5625 C 24.109375 -11.320312 24.085938 -11.070312 24.046875 -10.8125 Z M 19.890625 -14.1875 C 19.554688 -16 18.742188 -17.46875 17.453125 -18.59375 C 16.160156 -19.71875 14.691406 -20.28125 13.046875 -20.28125 C 11.421875 -20.28125 9.894531 -19.691406 8.46875 -18.515625 C 7.050781 -17.347656 6.210938 -15.90625 5.953125 -14.1875 Z M 19.890625 -14.1875 "/></g></g></g></svg>