<svg xmlns="http://www.w3.org/2000/svg" xmlns:xlink="http://www.w3.org/1999/xlink" width="500" zoomAndPan="magnify" viewBox="0 0 375 374.999991" height="500" preserveAspectRatio="xMidYMid meet" version="1.0"><defs><clipPath id="ed9e95c489"><path d="M 20.09375 20.09375 L 356 20.09375 L 356 355 L 20.09375 355 Z M 20.09375 20.09375 " clip-rule="nonzero"/></clipPath><clipPath id="285162428e"><path d="M 57.40625 57.40625 L 315.289062 57.40625 L 315.289062 315.289062 L 57.40625 315.289062 Z M 57.40625 57.40625 " clip-rule="nonzero"/></clipPath><clipPath id="5b43d779ee"><path d="M 82.105469 126.039062 L 293 126.039062 L 293 318 L 82.105469 318 Z M 82.105469 126.039062 " clip-rule="nonzero"/></clipPath></defs><rect x="-37.5" width="450" fill="#ffffff" y="-37.499999" height="449.999989" fill-opacity="1"/><rect x="-37.5" width="450" fill="#5b8e55" y="-37.499999" height="449.999989" fill-opacity="1"/><g clip-path="url(#ed9e95c489)"><path fill="#ffffff" d="M 187.464844 20.09375 C 187.402344 20.09375 187.324219 20.09375 187.242188 20.09375 C 94.925781 20.09375 20.09375 94.925781 20.09375 187.242188 C 20.09375 219.125 29.019531 248.925781 44.511719 274.277344 L 44.097656 273.542969 L 20.492188 344.351562 C 20.234375 345.101562 20.085938 345.96875 20.085938 346.871094 C 20.085938 351.269531 23.65625 354.839844 28.054688 354.839844 C 28.054688 354.839844 28.0625 354.839844 28.0625 354.839844 C 28.070312 354.839844 28.085938 354.839844 28.09375 354.839844 C 28.988281 354.839844 29.839844 354.691406 30.628906 354.410156 L 30.574219 354.425781 L 101.378906 330.835938 C 126.015625 345.914062 155.839844 354.839844 187.753906 354.839844 C 280.191406 354.839844 355.128906 279.90625 355.128906 187.464844 C 355.128906 95.027344 280.191406 20.09375 187.753906 20.09375 C 187.648438 20.09375 187.546875 20.09375 187.441406 20.09375 Z M 187.464844 338.902344 C 157.476562 338.875 129.53125 330.101562 106.050781 314.996094 L 106.648438 315.355469 C 105.445312 314.582031 103.980469 314.128906 102.402344 314.128906 C 102.394531 314.128906 102.382812 314.128906 102.375 314.128906 C 102.367188 314.128906 102.351562 314.128906 102.34375 314.128906 C 101.453125 314.128906 100.597656 314.28125 99.808594 314.558594 L 99.867188 314.542969 L 40.664062 334.261719 L 60.398438 275.140625 C 60.660156 274.382812 60.8125 273.503906 60.8125 272.597656 C 60.8125 271.019531 60.359375 269.550781 59.5625 268.316406 L 59.578125 268.347656 C 44.917969 245.457031 36.214844 217.539062 36.214844 187.578125 C 36.214844 104.003906 103.960938 36.257812 187.539062 36.257812 C 271.113281 36.257812 338.859375 104.003906 338.859375 187.578125 C 338.859375 271.152344 271.113281 338.902344 187.539062 338.902344 C 187.515625 338.902344 187.492188 338.902344 187.457031 338.902344 Z M 187.464844 338.902344 " fill-opacity="1" fill-rule="nonzero"/></g><g clip-path="url(#285162428e)"><path fill="#ffffff" d="M 187.472656 317.535156 C 115.617188 317.535156 57.40625 258.925781 57.40625 187.472656 C 57.40625 116.015625 115.617188 57.40625 187.472656 57.40625 C 259.328125 57.40625 317.535156 115.617188 317.535156 187.472656 C 317.535156 259.328125 258.925781 317.535156 187.472656 317.535156 Z M 187.472656 65.4375 C 120.03125 65.4375 65.4375 120.03125 65.4375 187.472656 C 65.4375 254.914062 120.03125 309.507812 187.472656 309.507812 C 254.914062 309.507812 309.507812 254.914062 309.507812 187.472656 C 309.507812 120.03125 254.511719 65.4375 187.472656 65.4375 Z M 187.472656 65.4375 " fill-opacity="1" fill-rule="nonzero"/></g><g clip-path="url(#5b43d779ee)"><path fill="#ffffff" d="M 288.160156 144.984375 C 262.636719 144.984375 226.574219 147.117188 208.148438 165.535156 C 200.171875 173.515625 196.1875 186.519531 197.21875 201.242188 C 197.355469 203.183594 198.648438 204.84375 200.503906 205.453125 C 202.355469 206.058594 204.382812 205.492188 205.648438 204.007812 C 215.898438 191.949219 228.632812 182.285156 243.539062 175.285156 C 244.800781 174.683594 246.296875 174.632812 247.65625 175.113281 C 248.851562 175.542969 249.792969 176.359375 250.28125 177.402344 C 251.296875 179.546875 250.96875 182.375 247.597656 183.964844 C 247.40625 184.058594 247.234375 184.183594 247.042969 184.269531 C 246.976562 184.296875 246.898438 184.289062 246.839844 184.316406 C 210.121094 201.574219 192.066406 231.6875 183.871094 262.652344 C 177.894531 223.882812 165.269531 201.058594 153.347656 187.046875 C 144.714844 175.859375 136.230469 169.933594 131.328125 166.578125 C 130.417969 165.957031 127.667969 164.082031 126.527344 162.941406 C 124.660156 161.074219 124.660156 158.035156 126.527344 156.167969 C 128.394531 154.3125 131.441406 154.3125 133.519531 156.378906 C 134.027344 156.828125 134.84375 157.40625 135.875 158.09375 L 136.730469 158.667969 C 143.664062 163.417969 156.574219 172.238281 168.027344 191.230469 C 169.054688 192.925781 171.035156 193.835938 172.960938 193.472656 C 174.914062 193.128906 176.445312 191.625 176.828125 189.679688 C 179.328125 176.914062 178.210938 157.96875 166.820312 146.582031 C 148.394531 128.175781 112.335938 126.039062 86.820312 126.039062 C 84.175781 126.039062 82.03125 128.183594 82.03125 130.828125 C 82.03125 156.351562 84.167969 192.410156 102.585938 210.835938 C 110.265625 218.519531 122.113281 221.964844 133.882812 221.964844 C 143.492188 221.964844 152.90625 219.5625 160.117188 215.398438 C 169.953125 235.777344 177.808594 266.222656 177.808594 312.800781 C 177.808594 315.445312 179.953125 317.589844 182.59375 317.589844 C 185.238281 317.589844 187.382812 315.445312 187.382812 312.800781 C 187.382812 286.816406 191.835938 255.632812 208.398438 229.964844 C 215.035156 236.449219 226.460938 240.558594 239.121094 240.941406 C 239.753906 240.957031 240.375 240.96875 241 240.96875 C 253.863281 240.96875 265.230469 236.9375 272.386719 229.773438 C 290.8125 211.34375 292.9375 175.285156 292.9375 149.761719 C 292.949219 147.117188 290.8125 144.984375 288.160156 144.984375 Z M 288.160156 144.984375 " fill-opacity="1" fill-rule="nonzero"/></g></svg>